<svg xmlns="http://www.w3.org/2000/svg" viewBox="0 0 746 119" width="746" height="119">
<g fill="white">
<path d="M104,0h1v2h-1zM164,0h2v2h-2zM74,1h30v3h-30zM135,1h29v3h-29zM134,2h1v49h-1zM164,2h1v1h-1zM73,3h1v49h-1zM74,4h29v1h-29zM133,4h1v49h-1zM135,4h28v2h-28zM72,5h1v48h-1zM74,5h28v2h-28zM132,5h1v49h-1zM71,6h1v49h-1zM135,6h27v2h-27zM74,7h27v2h-27zM131,7h1v49h-1zM70,8h1v48h-1zM135,8h26v1h-26zM69,9h1v49h-1zM74,9h26v1h-26zM130,9h1v48h-1zM135,9h25v2h-25zM74,10h25v2h-25zM129,10h1v49h-1zM68,11h1v49h-1zM135,11h24v2h-24zM74,12h24v2h-24zM128,12h1v49h-1zM67,13h1v48h-1zM135,13h23v1h-23zM66,14h1v49h-1zM74,14h23v1h-23zM127,14h1v48h-1zM135,14h22v2h-22zM74,15h22v2h-22zM126,15h1v49h-1zM65,16h1v48h-1zM135,16h21v1h-21zM74,17h21v1h-21zM125,17h1v48h-1zM135,17h20v2h-20zM64,18h1v48h-1zM74,18h20v2h-20zM124,18h1v49h-1zM63,19h1v49h-1zM135,19h19v2h-19zM74,20h19v1h-19zM123,20h1v48h-1zM62,21h1v48h-1zM74,21h18v2h-18zM135,21h18v1h-18zM218,21h88v19h-88zM321,21h77v18h-77zM415,21h57v18h-57zM518,21h26v2h-26zM600,21h26v31h-26zM677,21h29v20h-29zM61,22h1v49h-1zM122,22h1v48h-1zM135,22h17v2h-17zM472,22h6v19h-6zM544,22h1v34h-1zM676,22h1v63h-1zM706,22h1v63h-1zM74,23h17v2h-17zM121,23h1v49h-1zM478,23h4v77h-4zM519,23h25v30h-25zM545,23h1v34h-1zM599,23h1v33h-1zM60,24h1v48h-1zM135,24h16v2h-16zM482,24h3v50h-3zM598,24h1v33h-1zM675,24h1v61h-1zM707,24h1v61h-1zM59,25h1v49h-1zM74,25h16v1h-16zM120,25h1v48h-1zM485,25h2v49h-2zM546,25h1v33h-1zM597,25h1v33h-1zM74,26h15v2h-15zM119,26h1v49h-1zM135,26h15v1h-15zM487,26h2v47h-2zM547,26h1v33h-1zM596,26h1v33h-1zM674,26h1v59h-1zM708,26h1v59h-1zM58,27h1v48h-1zM135,27h14v2h-14zM489,27h1v45h-1zM548,27h1v34h-1zM595,27h1v34h-1zM57,28h1v49h-1zM74,28h14v1h-14zM118,28h1v49h-1zM490,28h2v43h-2zM549,28h1v34h-1zM673,28h1v57h-1zM709,28h1v57h-1zM74,29h13v2h-13zM135,29h13v1h-13zM492,29h1v41h-1zM594,29h1v33h-1zM56,30h1v48h-1zM117,30h1v48h-1zM135,30h12v2h-12zM493,30h1v39h-1zM550,30h1v33h-1zM593,30h1v33h-1zM672,30h1v55h-1zM710,30h1v55h-1zM74,31h12v2h-12zM116,31h1v49h-1zM494,31h1v37h-1zM551,31h1v33h-1zM592,31h1v33h-1zM55,32h1v48h-1zM135,32h11v2h-11zM495,32h1v35h-1zM552,32h1v34h-1zM591,32h1v33h-1zM671,32h1v53h-1zM711,32h1v53h-1zM54,33h1v49h-1zM74,33h11v1h-11zM115,33h1v48h-1zM496,33h1v33h-1zM553,33h1v34h-1zM74,34h10v2h-10zM114,34h1v49h-1zM135,34h10v1h-10zM590,34h1v33h-1zM670,34h1v51h-1zM712,34h1v51h-1zM53,35h1v48h-1zM135,35h9v2h-9zM497,35h1v30h-1zM554,35h1v33h-1zM589,35h1v33h-1zM74,36h9v1h-9zM113,36h1v48h-1zM498,36h1v27h-1zM555,36h1v33h-1zM588,36h1v33h-1zM669,36h1v49h-1zM713,36h1v50h-1zM52,37h1v48h-1zM74,37h8v2h-8zM135,37h8v1h-8zM556,37h1v33h-1zM587,37h1v33h-1zM668,37h1v50h-1zM51,38h1v48h-1zM112,38h1v48h-1zM135,38h7v2h-7zM499,38h1v23h-1zM557,38h1v34h-1zM586,38h1v33h-1zM714,38h1v51h-1zM74,39h7v2h-7zM111,39h1v49h-1zM321,39h22v61h-22zM415,39h23v61h-23zM468,39h4v1h-4zM558,39h1v34h-1zM50,40h1v48h-1zM135,40h6v2h-6zM251,40h23v60h-23zM471,40h1v1h-1zM500,40h1v19h-1zM585,40h1v32h-1zM667,40h1v49h-1zM715,40h1v51h-1zM49,41h1v48h-1zM74,41h6v1h-6zM110,41h1v48h-1zM473,41h5v1h-5zM559,41h1v33h-1zM584,41h1v33h-1zM666,41h1v50h-1zM677,41h14v2h-14zM692,41h14v2h-14zM74,42h5v2h-5zM109,42h1v49h-1zM135,42h5v1h-5zM474,42h4v1h-4zM560,42h1v33h-1zM583,42h1v33h-1zM716,42h1v51h-1zM48,43h1v48h-1zM135,43h4v2h-4zM475,43h3v1h-3zM561,43h1v33h-1zM582,43h1v33h-1zM665,43h1v50h-1zM677,43h13v2h-13zM693,43h13v2h-13zM47,44h1v49h-1zM74,44h4v1h-4zM108,44h1v49h-1zM476,44h2v2h-2zM501,44h1v12h-1zM562,44h1v34h-1zM581,44h1v33h-1zM717,44h1v51h-1zM74,45h3v2h-3zM107,45h1v49h-1zM135,45h3v1h-3zM563,45h1v34h-1zM664,45h1v50h-1zM677,45h12v2h-12zM694,45h12v2h-12zM46,46h1v48h-1zM135,46h2v2h-2zM477,46h1v54h-1zM580,46h1v32h-1zM718,46h1v51h-1zM74,47h2v1h-2zM106,47h1v49h-1zM564,47h1v33h-1zM579,47h1v33h-1zM663,47h1v50h-1zM677,47h11v2h-11zM695,47h11v2h-11zM719,47h1v52h-1zM45,48h1v48h-1zM74,48h1v2h-1zM135,48h1v1h-1zM343,48h1v2h-1zM565,48h1v33h-1zM578,48h1v33h-1zM44,49h1v48h-1zM105,49h1v48h-1zM566,49h1v33h-1zM577,49h1v33h-1zM662,49h1v50h-1zM677,49h10v2h-10zM696,49h10v2h-10zM720,49h1v51h-1zM104,50h1v49h-1zM567,50h1v33h-1zM43,51h1v48h-1zM576,51h1v32h-1zM661,51h1v49h-1zM677,51h9v2h-9zM697,51h9v2h-9zM721,51h1v49h-1zM42,52h1v48h-1zM103,52h1v49h-1zM343,52h47v3h-47zM568,52h1v32h-1zM575,52h1v32h-1zM600,52h2v2h-2zM603,52h23v48h-23zM102,53h1v49h-1zM519,53h22v47h-22zM543,53h1v2h-1zM569,53h1v32h-1zM574,53h1v32h-1zM660,53h1v47h-1zM677,53h8v2h-8zM698,53h8v2h-8zM722,53h1v47h-1zM41,54h1v48h-1zM476,54h1v46h-1zM570,54h1v31h-1zM600,54h1v1h-1zM40,55h1v49h-1zM101,55h1v49h-1zM343,55h46v13h-46zM573,55h1v30h-1zM659,55h1v45h-1zM677,55h7v2h-7zM699,55h7v2h-7zM723,55h1v45h-1zM100,56h1v49h-1zM475,56h1v43h-1zM571,56h2v29h-2zM658,56h1v44h-1zM39,57h1v48h-1zM474,57h1v41h-1zM541,57h1v1h-1zM677,57h6v2h-6zM700,57h6v2h-6zM724,57h1v43h-1zM99,58h1v49h-1zM473,58h1v38h-1zM657,58h1v42h-1zM38,59h1v48h-1zM471,59h2v35h-2zM541,59h1v41h-1zM677,59h5v2h-5zM701,59h5v2h-5zM725,59h1v41h-1zM37,60h1v48h-1zM98,60h1v48h-1zM467,60h4v29h-4zM656,60h1v40h-1zM97,61h1v49h-1zM438,61h29v17h-29zM677,61h4v2h-4zM702,61h4v2h-4zM726,61h1v39h-1zM36,62h1v48h-1zM655,62h1v38h-1zM35,63h1v49h-1zM96,63h1v49h-1zM677,63h3v2h-3zM703,63h3v2h-3zM727,63h1v37h-1zM95,64h1v49h-1zM389,64h1v4h-1zM654,64h1v36h-1zM34,65h1v48h-1zM677,65h2v2h-2zM704,65h2v2h-2zM728,65h1v35h-1zM33,66h1v49h-1zM94,66h1v49h-1zM653,66h1v34h-1zM93,67h1v49h-1zM677,67h1v18h-1zM705,67h1v18h-1zM729,67h1v33h-1zM32,68h1v49h-1zM343,68h1v1h-1zM388,68h1v1h-1zM652,68h1v32h-1zM31,69h1v49h-1zM92,69h1v49h-1zM678,69h27v16h-27zM730,69h1v31h-1zM651,70h1v30h-1zM30,71h1v48h-1zM91,71h1v48h-1zM731,71h1v29h-1zM90,72h1v47h-1zM650,72h1v28h-1zM29,73h1v46h-1zM343,73h1v1h-1zM732,73h1v27h-1zM28,74h1v45h-1zM89,74h1v45h-1zM482,74h2v26h-2zM649,74h1v26h-1zM88,75h1v44h-1zM733,75h1v25h-1zM27,76h1v43h-1zM484,76h1v24h-1zM648,76h1v24h-1zM26,77h1v42h-1zM87,77h1v42h-1zM485,77h1v23h-1zM647,77h1v23h-1zM734,77h1v23h-1zM86,78h1v41h-1zM459,78h8v1h-8zM486,78h1v22h-1zM25,79h1v40h-1zM460,79h7v1h-7zM646,79h1v21h-1zM735,79h1v21h-1zM24,80h1v39h-1zM85,80h1v39h-1zM461,80h6v2h-6zM487,80h1v20h-1zM488,81h1v19h-1zM645,81h1v19h-1zM736,81h1v19h-1zM23,82h1v37h-1zM84,82h1v37h-1zM343,82h55v18h-55zM462,82h5v1h-5zM489,82h1v18h-1zM737,82h1v18h-1zM83,83h1v36h-1zM463,83h4v1h-4zM490,83h1v17h-1zM644,83h1v17h-1zM22,84h1v35h-1zM464,84h3v1h-3zM491,84h1v16h-1zM738,84h1v16h-1zM21,85h1v34h-1zM82,85h1v34h-1zM465,85h2v2h-2zM492,85h1v15h-1zM643,85h1v15h-1zM81,86h1v33h-1zM739,86h1v14h-1zM20,87h1v32h-1zM466,87h1v1h-1zM493,87h1v13h-1zM642,87h1v13h-1zM19,88h1v31h-1zM80,88h1v31h-1zM494,88h1v12h-1zM740,88h1v12h-1zM79,89h1v30h-1zM468,89h3v1h-3zM495,89h1v11h-1zM641,89h1v11h-1zM18,90h1v29h-1zM469,90h2v1h-2zM496,90h1v10h-1zM741,90h1v10h-1zM78,91h1v28h-1zM470,91h1v2h-1zM497,91h1v9h-1zM640,91h1v9h-1zM17,92h1v27h-1zM498,92h1v8h-1zM742,92h1v8h-1zM16,93h1v26h-1zM77,93h1v26h-1zM639,93h1v7h-1zM76,94h1v25h-1zM472,94h1v1h-1zM499,94h1v6h-1zM638,94h1v6h-1zM743,94h1v6h-1zM15,95h1v24h-1zM500,95h1v5h-1zM14,96h1v23h-1zM75,96h1v23h-1zM501,96h1v4h-1zM637,96h1v4h-1zM744,96h1v4h-1zM74,97h1v22h-1zM502,97h1v3h-1zM13,98h1v21h-1zM503,98h1v2h-1zM636,98h1v2h-1zM745,98h1v2h-1zM73,99h1v20h-1zM504,99h1v1h-1zM635,99h1v1h-1zM12,100h1v19h-1zM72,100h1v19h-1zM11,101h1v18h-1zM71,102h1v17h-1zM10,103h1v16h-1zM9,104h1v15h-1zM70,104h1v15h-1zM69,105h1v14h-1zM8,106h1v13h-1zM7,107h1v12h-1zM68,107h1v12h-1zM67,108h1v11h-1zM6,109h1v10h-1zM66,110h1v9h-1zM5,111h1v8h-1zM65,111h1v8h-1zM4,112h1v7h-1zM64,113h1v6h-1zM3,114h1v5h-1zM2,115h1v4h-1zM63,115h1v4h-1zM62,116h1v3h-1zM1,117h1v2h-1zM0,118h1v1h-1zM61,118h1v1h-1z"/>
</g></svg>